<svg width="1440" height="800" fill="none" xmlns="http://www.w3.org/2000/svg"><path d="M287.099 398.545C197.248 469.164 73.359 474.438 2 464.532V799h1438V556.208c-13.84 0-37.67-4.769-61.02 0-51.97 10.616-113.36 91.442-165.48 101.292-127 24-260-148.5-260-148.5s-93.59-101.136-157-162.5c-62-60-120.676-94-247-94-102.022 0-200 97-262.401 146.045Z" fill="#FDF6EE"/><path d="M392 1c28.419 31.55 102.606 93.149 172.008 87.14C650.759 80.626 710 56 784.377 79.124c46.3 14.395 41.88 59.094 83.76 91.646s224.353-46.574 224.353-46.574 128.64-57.592 141.1 0c12.47 57.592-38.89 126.201-15.45 140.224 18.74 11.217 155.72-40.064 221.86-67.108" stroke="#E17A0E" stroke-opacity=".24"/><path d="M0 632.669c28.934-24.143 78.656-59.425 137.925-75.426C205.5 539 322.663 525.964 371.172 600.201 395.132 636.869 369.128 678.5 398 710.5c28.691 31.799 76.941 11.363 113.5 28.5 32 15 40.5 41.5 55.5 60" stroke="#E4E4E4"/></svg>