<svg width="14" height="14" viewBox="0 0 14 14" fill="none" xmlns="http://www.w3.org/2000/svg">
<g clip-path="url(#clip0_1_273)">
<path d="M0.841477 9.31602C0.898762 9.32532 0.956735 9.32961 1.01474 9.32885L10.8915 9.32885L10.6761 9.42902C10.4656 9.52866 10.2741 9.66426 10.1101 9.8297L7.34046 12.5994C6.97569 12.9476 6.91439 13.5078 7.19521 13.9266C7.52205 14.373 8.14882 14.4699 8.5952 14.1431C8.63126 14.1166 8.66554 14.0878 8.69775 14.0568L13.7062 9.04838C14.0976 8.65741 14.098 8.02318 13.707 7.63177C13.7067 7.63152 13.7065 7.63124 13.7062 7.63099L8.69775 2.62252C8.30603 2.23189 7.6718 2.23277 7.28114 2.62449C7.2504 2.65533 7.2217 2.68813 7.19521 2.72269C6.91439 3.14156 6.97569 3.70172 7.34046 4.04993L10.1051 6.82462C10.2521 6.97175 10.4211 7.09511 10.606 7.19024L10.9065 7.32547L1.06986 7.32547C0.558155 7.30647 0.109209 7.66392 0.0130777 8.16689C-0.0754786 8.71297 0.295399 9.22743 0.841477 9.31602Z" fill="#DC7000"/>
</g>
<defs>
<clipPath id="clip0_1_273">
<rect width="14" height="14" fill="white" transform="translate(14 14) rotate(-180)"/>
</clipPath>
</defs>
</svg>
